<?xml version="1.0" standalone="no"?>
<!DOCTYPE svg PUBLIC "-//W3C//DTD SVG 20010904//EN"
 "http://www.w3.org/TR/2001/REC-SVG-20010904/DTD/svg10.dtd">
<svg version="1.0" xmlns="http://www.w3.org/2000/svg"
 width="399.000000pt" height="126.000000pt" viewBox="0 0 399.000000 126.000000"
 preserveAspectRatio="xMidYMid meet">

<g transform="translate(0.000000,126.000000) scale(0.100000,-0.100000)"
fill="#000000" stroke="none">
<path d="M414 1204 c8 -61 63 -186 116 -265 56 -83 169 -200 245 -254 200
-142 447 -206 512 -131 20 23 23 38 23 105 0 89 -27 206 -63 278 -74 143 -149
185 -112 61 23 -80 20 -115 -15 -150 -29 -29 -34 -30 -83 -24 -65 9 -213 78
-309 145 -82 56 -205 174 -250 239 -18 27 -37 42 -50 42 -19 0 -20 -4 -14 -46z"/>
<path d="M133 1023 c-10 -25 22 -134 66 -229 80 -169 208 -323 361 -430 44
-31 80 -58 80 -60 0 -3 -5 -14 -10 -25 -15 -27 -64 -25 -158 7 -152 50 -283
139 -378 256 -31 37 -63 68 -70 68 -19 0 -18 -62 2 -131 67 -224 246 -395 474
-454 97 -25 271 -17 368 18 164 58 298 172 370 316 54 107 54 113 0 94 -31
-11 -66 -14 -124 -10 -309 21 -664 226 -891 515 -35 45 -69 82 -74 82 -5 0
-13 -8 -16 -17z"/>
<path d="M1781 775 c-55 -17 -114 -74 -139 -134 -16 -36 -142 -602 -142 -634
0 -4 64 -6 142 -5 l141 3 57 270 c31 149 59 277 62 285 5 15 9 -25 31 -375
l12 -180 120 -3 121 -3 133 278 c124 257 163 330 147 278 -6 -21 -116 -544
-116 -551 0 -3 64 -3 142 -2 l142 3 83 390 c45 215 82 391 83 393 0 1 -109 2
-243 2 l-243 0 -89 -211 -90 -211 -6 139 c-4 76 -7 171 -8 211 l-1 72 -147 -1
c-96 0 -164 -5 -192 -14z"/>
<path d="M2875 768 c3 -13 26 -158 51 -322 29 -190 52 -313 64 -335 40 -79 93
-102 235 -102 157 0 228 25 311 113 31 31 339 494 438 656 6 9 -28 12 -157 12
l-164 0 -178 -280 c-170 -268 -195 -304 -195 -281 0 5 -14 110 -30 233 -44
315 -48 321 -251 326 l-130 4 6 -24z"/>
</g>
</svg>
