<svg width="190" height="50" viewBox="0 0 397 126" fill="none" xmlns="http://www.w3.org/2000/svg">
<path d="M40.4 4.60014C41.2 10.7001 46.7 23.2001 52 31.1001C57.6 39.4001 68.9 51.1001 76.5 56.5001C96.5 70.7001 121.2 77.1001 127.7 69.6001C129.7 67.3001 130 65.8001 130 59.1001C130 50.2001 127.3 38.5001 123.7 31.3001C116.3 17.0001 108.8 12.8001 112.5 25.2001C114.8 33.2001 114.5 36.7001 111 40.2001C108.1 43.1001 107.6 43.2001 102.7 42.6001C96.2 41.7001 81.4 34.8001 71.8 28.1001C63.6 22.5001 51.3 10.7001 46.8 4.20014C45 1.50014 43.1 0.000139297 41.8 0.000139297C39.9 0.000139297 39.8 0.400139 40.4 4.60014Z" fill="#2B4B5D"/>
<path d="M12.3 22.7002C11.3 25.2002 14.5 36.1002 18.9 45.6002C26.9 62.5002 39.7 77.9002 55 88.6002C59.4 91.7002 63 94.4002 63 94.6002C63 94.9002 62.5 96.0002 62 97.1002C60.5 99.8002 55.6 99.6002 46.2 96.4002C31 91.4002 17.9 82.5002 8.4 70.8002C5.3 67.1002 2.1 64.0002 1.4 64.0002C-0.500002 64.0002 -0.400002 70.2002 1.6 77.1002C8.3 99.5002 26.2 116.6 49 122.5C58.7 125 76.1 124.2 85.8 120.7C102.2 114.9 115.6 103.5 122.8 89.1002C128.2 78.4002 128.2 77.8002 122.8 79.7002C119.7 80.8002 116.2 81.1002 110.4 80.7002C79.5 78.6002 44 58.1002 21.3 29.2002C17.8 24.7002 14.4 21.0002 13.9 21.0002C13.4 21.0002 12.6 21.8002 12.3 22.7002Z" fill="#008873"/>
<path d="M177.1 47.5001C171.6 49.2001 165.7 54.9001 163.2 60.9001C161.6 64.5001 149 121.1 149 124.3C149 124.7 155.4 124.9 163.2 124.8L177.3 124.5L183 97.5001C186.1 82.6001 188.9 69.8001 189.2 69.0001C189.7 67.5001 190.1 71.5001 192.3 106.5L193.5 124.5L205.5 124.8L217.6 125.1L230.9 97.3001C243.3 71.6001 247.2 64.3001 245.6 69.5001C245 71.6001 234 123.9 234 124.6C234 124.9 240.4 124.9 248.2 124.8L262.4 124.5L270.7 85.5001C275.2 64.0001 278.9 46.4001 279 46.2001C279 46.1001 268.1 46.0001 254.7 46.0001H230.4L221.5 67.1001L212.5 88.2001L211.9 74.3001C211.5 66.7001 211.2 57.2001 211.1 53.2001L211 46.0001L196.3 46.1001C186.7 46.1001 179.9 46.6001 177.1 47.5001Z" fill="#2B4B5D"/>
<path d="M286.5 48.2001C286.8 49.5001 289.1 64.0001 291.6 80.4001C294.5 99.4001 296.8 111.7 298 113.9C302 121.8 307.3 124.1 321.5 124.1C337.2 124.1 344.3 121.6 352.6 112.8C355.7 109.7 386.5 63.4001 396.4 47.2001C397 46.3001 393.6 46.0001 380.7 46.0001H364.3L346.5 74.0001C329.5 100.8 327 104.4 327 102.1C327 101.6 325.6 91.1001 324 78.8001C319.6 47.3001 319.2 46.7001 298.9 46.2001L285.9 45.8001L286.5 48.2001Z" fill="#2B4B5D"/>
</svg>
